<?xml version="1.0" encoding="utf-8"?>


<!-- The icon can be used freely in both personal and commercial projects with no attribution required, but always appreciated. 
You may NOT sub-license, resell, rent, redistribute or otherwise transfer the icon without express written permission from iconmonstr.com -->


<!DOCTYPE svg PUBLIC "-//W3C//DTD SVG 1.1//EN" "http://www.w3.org/Graphics/SVG/1.1/DTD/svg11.dtd">

<svg version="1.1" xmlns="http://www.w3.org/2000/svg" xmlns:xlink="http://www.w3.org/1999/xlink" x="0px" y="0px"

	 width="512px" height="512px" viewBox="0 0 512 512" enable-background="new 0 0 512 512" xml:space="preserve">

<path id="blogger-square-rounded-icon" d="M319.613,302.639c0,8.539-6.922,15.461-15.459,15.461h-94.379

	c-8.539,0-15.459-6.922-15.459-15.461c0-8.535,6.92-15.457,15.459-15.457h94.379C312.691,287.182,319.613,294.104,319.613,302.639z

	 M209.775,223.751h47.17c8.537,0,15.459-6.921,15.459-15.458c0-8.538-6.922-15.459-15.459-15.459h-47.17

	c-8.539,0-15.459,6.921-15.459,15.459C194.316,216.83,201.236,223.751,209.775,223.751z M461.945,100v312c0,27.614-22.386,50-50,50

	h-312c-27.614,0-50-22.386-50-50V100c0-27.614,22.386-50,50-50h312C439.56,50,461.945,72.386,461.945,100z M386.471,236.81

	c0-7.065-5.727-12.793-12.791-12.793h-21.055c-7.064,0-12.791-5.728-12.791-12.793v-5.597c0-43.569-35.32-78.888-78.891-78.888

	h-54.635c-43.57,0-78.889,35.319-78.889,78.888v100.744c0,43.568,35.318,78.89,78.889,78.89h101.273

	c43.572,0,78.889-35.321,78.889-78.89V236.81z"/>

</svg>

